#!OML:ASF F:\VICON\USERDATA\INSTALL\Justin_Nancy\Justin_Nancy.ASF
:FULLY-SPECIFIED
:DEGREES

68
root 1.17021 17.2168 -11.2419 -1.49916 -4.74404 5.41288
lowerback 5.05513 0.763999 -4.91844
upperback -0.0887493 0.744132 0.605711
thorax -3.00088 0.448983 3.3323
lowerneck -14.7197 -2.44384 -9.599
upperneck 25.0952 -1.69944 2.8383
head 10.623 -1.35859 2.41047
rclavicle 1.10325e-014 2.38542e-015
rhumerus -27.2979 -14.0556 -78.3154
rradius 30.2949
rwrist 10.2495
rhand -13.0526 11.6977
rfingers 7.12502
rthumb 13.0425 -17.8746
lclavicle 1.10325e-014 2.38542e-015
lhumerus -37.6302 15.5478 78.3467
lradius 17.9194
lwrist -19.8527
lhand -10.7768 29.0644
lfingers 7.12502
lthumb 15.2355 58.4833
rfemur -21.912 -0.0845155 15.9205
rtibia 71.9166
rfoot -7.58028 -3.51328
rtoes 0.43546
lfemur -15.08 1.38879 -30.0051
ltibia 34.6788
lfoot -15.0728 0.816223
ltoes 2.68673
69
root 1.17515 17.2098 -11.0154 -1.4552 -4.55653 5.57743
lowerback 5.05357 0.656411 -4.99398
upperback -0.0132218 0.597868 0.599995
thorax -2.90866 0.373375 3.38063
lowerneck -14.7524 -2.45567 -9.61244
upperneck 25.0336 -1.68087 2.73377
head 10.6058 -1.36213 2.37639
rclavicle -6.1499e-015 1.59028e-015
rhumerus -27.6918 -13.6771 -78.3436
rradius 30.2881
rwrist 9.63222
rhand -13.1057 11.5631
rfingers 7.12502
rthumb 12.9913 -18.0124
lclavicle -6.1499e-015 1.59028e-015
lhumerus -36.7269 15.2454 78.8123
lradius 18.1977
lwrist -20.0209
lhand -9.94098 30.1169
lfingers 7.12502
lthumb 16.0405 59.4729
rfemur -23.5342 -0.260059 15.751
rtibia 71.1168
rfoot -8.75731 -3.33259
rtoes -0.107268
lfemur -14.2872 1.15082 -30.3295
ltibia 34.6672
lfoot -15.7656 1.30155
ltoes 2.0841
70
root 1.18118 17.1893 -10.782 -1.44233 -4.32592 5.75831
lowerback 5.03847 0.526006 -5.10127
upperback 0.024762 0.419574 0.60299
thorax -2.84461 0.283683 3.45801
lowerneck -14.6015 -2.42242 -9.63509
upperneck 24.9564 -1.62208 2.64764
head 10.5444 -1.34646 2.35649
rclavicle -1.75179e-015 1.11319e-014
rhumerus -28.2759 -13.4075 -78.3269
rradius 30.3037
rwrist 9.27394
rhand -13.4033 11.9619
rfingers 7.12502
rthumb 12.7045 -17.6317
lclavicle -1.75179e-015 1.11319e-014
lhumerus -35.9307 14.7441 79.3417
lradius 18.4931
lwrist -19.7599
lhand -9.46643 30.5285
lfingers 7.12502
lthumb 16.4974 59.8471
rfemur -24.9787 -0.454795 15.5345
rtibia 70.1296
rfoot -9.81191 -3.20645
rtoes 1.12046
lfemur -13.3293 0.862653 -30.6806
ltibia 34.629
lfoot -16.4196 1.78198
ltoes 1.67641
71
root 1.18481 17.1723 -10.5551 -1.29798 -4.12427 5.85816
lowerback 4.96841 0.392386 -5.17305
upperback 0.0614711 0.243393 0.646134
thorax -2.75051 0.193937 3.55665
lowerneck -14.6203 -2.38796 -9.74235
upperneck 24.9011 -1.54125 2.64037
head 10.5239 -1.31891 2.38191
rclavicle -1.93567e-014 -1.59028e-015
rhumerus -28.6893 -13.0408 -78.3387
rradius 30.3359
rwrist 8.66263
rhand -13.125 12.1309
rfingers 7.12502
rthumb 12.9727 -17.4458
lclavicle -1.93567e-014 -1.59028e-015
lhumerus -35.0143 13.8221 80.0814
lradius 18.8317
lwrist -18.6174
lhand -9.77953 29.6744
lfingers 7.12502
lthumb 16.1959 59.0178
rfemur -26.5933 -0.549436 15.4196
rtibia 68.9337
rfoot -10.776 -3.25732
rtoes 1.43341
lfemur -12.5154 0.433527 -30.9538
ltibia 34.5837
lfoot -16.9153 2.30909
ltoes 2.35824
72
root 1.18088 17.1592 -10.3322 -1.2405 -3.76488 6.09455
lowerback 5.0955 0.261651 -5.46295
upperback 0.104524 0.0463117 0.658916
thorax -2.75817 0.0989481 3.74814
lowerneck -14.7704 -2.36904 -9.79528
upperneck 24.9272 -1.50053 2.70486
head 10.5606 -1.29749 2.41948
rclavicle 6.98231e-015 -5.56597e-015
rhumerus -29.0849 -12.7798 -78.2473
rradius 30.2622
rwrist 8.07347
rhand -12.9255 12.5781
rfingers 7.12502
rthumb 13.165 -16.9863
lclavicle 6.98231e-015 -5.56597e-015
lhumerus -34.196 12.6931 80.8853
lradius 19.4114
lwrist -17.5754
lhand -10.1917 28.8673
lfingers 7.12502
lthumb 15.7991 58.2426
rfemur -28.0486 -0.66045 15.1761
rtibia 67.5221
rfoot -11.8589 -3.65032
rtoes -1.47142
lfemur -11.6527 0.140044 -31.3416
ltibia 34.4947
lfoot -17.5406 2.66549
ltoes 2.39531
73
root 1.17829 17.1455 -10.106 -1.20916 -3.39012 6.09376
lowerback 5.26995 0.0478018 -5.51107
upperback 0.124234 -0.248424 0.764527
thorax -2.804 -0.04569 3.908
lowerneck -14.6881 -2.25812 -9.88044
upperneck 24.7418 -1.34153 2.74228
head 10.4661 -1.22365 2.46639
rclavicle -2.11209e-015 -7.95139e-016
rhumerus -29.5397 -12.3298 -78.185
rradius 30.1069
rwrist 7.96178
rhand -13.0312 13.5585
rfingers 7.12502
rthumb 13.0632 -16.0124
lclavicle -2.11209e-015 -7.95139e-016
lhumerus -33.6295 12.0181 81.4858
lradius 20.1854
lwrist -16.9373
lhand -10.6108 28.2433
lfingers 7.12502
lthumb 15.3954 57.65
rfemur -29.275 -0.795239 15.1791
rtibia 65.8414
rfoot -12.5337 -4.12086
rtoes -3.56338
lfemur -10.6834 -0.173999 -31.4628
ltibia 34.3304
lfoot -18.3198 2.96176
ltoes 1.91562
74
root 1.17123 17.1296 -9.88929 -1.10261 -2.99551 6.25622
lowerback 5.53676 -0.138747 -5.8224
upperback 0.0439379 -0.532312 0.850454
thorax -3.00336 -0.174232 4.19829
lowerneck -14.6817 -2.1561 -9.85739
upperneck 24.7503 -1.18156 2.65621
head 10.4562 -1.15866 2.45297
rclavicle 8.24956e-015 -1.43125e-014
rhumerus -30.2042 -11.5419 -78.1931
rradius 30.3004
rwrist 7.48822
rhand -12.9596 13.5065
rfingers 7.12502
rthumb 13.1321 -16.06
lclavicle 8.24956e-015 -1.43125e-014
lhumerus -33.1475 11.086 82.1596
lradius 21.0742
lwrist -15.9701
lhand -11.1718 27.8869
lfingers 7.12502
lthumb 14.855 57.3344
rfemur -30.5154 -0.938958 14.9947
rtibia 63.9897
rfoot -12.68 -4.48761
rtoes -2.95324
lfemur -9.74495 -0.534206 -31.7526
ltibia 33.9675
lfoot -18.8622 3.35639
ltoes 0.2756
75
root 1.16274 17.1289 -9.67246 -0.977009 -2.68488 6.35377
lowerback 5.69268 -0.201159 -6.00875
upperback 0.106217 -0.635299 0.868859
thorax -3.01241 -0.223874 4.33246
lowerneck -15.0255 -2.19584 -9.76571
upperneck 24.8145 -1.21476 2.63096
head 10.5475 -1.16834 2.42442
rclavicle -1.12313e-014 7.15625e-015
rhumerus -30.5642 -11.1932 -78.2747
rradius 30.6086
rwrist 6.90869
rhand -12.4063 12.4706
rfingers 7.12502
rthumb 13.6655 -17.0608
lclavicle -1.12313e-014 7.15625e-015
lhumerus -32.2963 9.59212 82.9231
lradius 21.9262
lwrist -14.7423
lhand -11.4397 26.9969
lfingers 7.12502
lthumb 14.5969 56.4632
rfemur -31.6091 -0.892761 14.8646
rtibia 61.8776
rfoot -12.5655 -4.98418
rtoes -2.23484
lfemur -8.69568 -0.787637 -31.9423
ltibia 33.3649
lfoot -19.2286 3.66848
ltoes -0.62236
76
root 1.15632 17.1297 -9.44108 -0.9104 -2.46792 6.64631
lowerback 5.65083 -0.270431 -6.348
upperback 0.295277 -0.743235 0.808434
thorax -2.7763 -0.286049 4.46729
lowerneck -15.3145 -2.25741 -9.7607
upperneck 24.6248 -1.29866 2.7369
head 10.5393 -1.18704 2.44749
rclavicle 1.07841e-014 1.19271e-014
rhumerus -30.7089 -10.8419 -78.4949
rradius 30.7941
rwrist 6.5904
rhand -12.2659 11.8665
rfingers 7.12502
rthumb 13.8008 -17.6557
lclavicle 1.07841e-014 1.19271e-014
lhumerus -31.1496 8.40818 83.4644
lradius 22.5528
lwrist -13.7793
lhand -11.4932 25.9107
lfingers 7.12502
lthumb 14.5454 55.3808
rfemur -32.5647 -0.780537 14.4753
rtibia 59.5558
rfoot -12.2185 -5.39661
rtoes -0.858471
lfemur -7.39781 -1.13868 -32.382
ltibia 32.4738
lfoot -19.4861 4.03152
ltoes 0.0660342
